<?xml version="1.0" standalone="no"?>
<!DOCTYPE svg PUBLIC "-//W3C//DTD SVG 20010904//EN"
 "http://www.w3.org/TR/2001/REC-SVG-20010904/DTD/svg10.dtd">
<svg version="1.0" xmlns="http://www.w3.org/2000/svg"
 width="187.000000pt" height="187.000000pt" viewBox="0 0 187.000000 187.000000"
 preserveAspectRatio="xMidYMid meet">
<metadata>
Created by potrace 1.11, written by Peter Selinger 2001-2013
</metadata>
<g transform="translate(0.000000,187.000000) scale(0.100000,-0.100000)"
fill="#000000" stroke="none">
<path d="M979 1507 c-10 -14 -28 -21 -52 -21 -20 -1 -37 -4 -37 -8 0 -5 -7 -8
-15 -8 -8 0 -21 -12 -29 -27 -8 -16 -35 -41 -60 -58 -37 -24 -46 -35 -44 -55
1 -14 -1 -31 -5 -38 -10 -16 15 -16 31 0 9 9 12 4 12 -24 0 -27 6 -40 25 -52
14 -9 25 -13 25 -9 0 5 5 1 10 -7 7 -11 10 -11 10 -2 0 7 5 10 10 7 6 -3 10
-2 10 4 0 7 8 7 23 2 18 -7 23 -5 24 8 1 9 3 23 5 31 2 9 -5 16 -17 16 -52 4
-51 4 -36 13 22 14 37 8 81 -32 33 -31 40 -44 40 -75 0 -20 -4 -43 -9 -51 -5
-7 -5 -26 -1 -41 5 -19 1 -55 -13 -112 -22 -84 -32 -101 -54 -93 -7 2 -10 -2
-7 -9 3 -9 -6 -13 -30 -14 -28 -1 -36 3 -42 21 -5 12 -7 25 -6 29 7 26 -123
43 -151 19 -25 -20 -21 -34 8 -27 18 5 27 1 35 -15 7 -11 9 -23 6 -27 -3 -3
-6 0 -6 7 0 9 -3 9 -13 -1 -10 -9 -59 -14 -177 -16 l-163 -4 8 38 c17 94 104
208 188 248 58 27 112 34 171 23 34 -7 36 -10 20 -21 -15 -11 -14 -12 13 -9
35 6 58 -22 68 -83 11 -68 17 -71 32 -19 7 28 16 61 19 75 3 14 9 40 14 59 12
44 7 48 -25 23 -25 -20 -29 -20 -68 -6 -170 61 -376 -12 -480 -169 -56 -84
-80 -168 -73 -254 5 -61 3 -73 -10 -73 -8 0 -12 -5 -9 -11 4 -6 13 -8 19 -6 7
3 18 -3 24 -14 9 -15 8 -20 -5 -27 -14 -8 -13 -11 8 -17 13 -4 38 -19 55 -34
51 -42 70 -56 84 -59 109 -25 180 -23 268 8 30 11 56 21 58 22 1 2 18 56 38
121 34 116 55 157 82 157 10 0 8 -11 -6 -42 -64 -140 41 -298 198 -298 105 0
202 101 202 210 0 45 -27 119 -52 143 -32 31 -89 69 -95 63 -3 -3 -12 -1 -20
5 -7 6 -13 8 -13 3 0 -5 -5 -2 -10 6 -6 10 -10 11 -10 3 0 -24 -46 -14 -58 11
-14 31 -3 69 33 125 29 44 35 47 51 31 15 -15 36 12 28 34 -8 21 -16 20 -44
-4 -12 -11 -26 -17 -30 -15 -16 10 20 127 47 157 15 16 15 18 0 18 -9 0 -20
-15 -28 -37 -6 -21 -18 -47 -25 -58 -13 -18 -14 -18 -14 -2 0 10 10 41 21 68
17 38 26 48 38 43 9 -3 24 -9 35 -12 14 -4 17 -12 13 -38 -6 -33 1 -41 28 -34
6 1 16 3 23 3 7 0 11 7 9 16 -2 9 -9 15 -15 14 -7 -2 -12 2 -12 8 0 6 10 9 23
7 16 -2 21 -9 19 -23 -2 -11 -1 -17 3 -13 4 4 16 3 27 -3 18 -10 18 -9 8 12
-10 17 -9 23 1 30 11 6 11 12 0 33 -11 21 -12 28 -1 41 10 12 10 15 -3 15 -24
0 -47 29 -47 60 0 24 3 27 23 22 19 -5 20 -3 9 11 -8 9 -20 13 -27 11 -7 -3
-23 4 -35 16 -11 11 -24 18 -29 16 -4 -3 -37 9 -72 28 -64 32 -65 32 -80 13z
m-28 -234 c13 -16 12 -17 -3 -4 -17 13 -22 21 -14 21 2 0 10 -8 17 -17z m79
-21 c0 -9 -5 -24 -10 -32 -7 -12 -11 -10 -18 10 -6 16 -6 29 0 37 13 16 28 7
28 -15z m-23 -134 c-3 -7 -5 -2 -5 12 0 14 2 19 5 13 2 -7 2 -19 0 -25z m-209
-250 c9 -9 12 -9 12 1 0 7 5 9 10 6 17 -11 11 -28 -9 -22 -10 2 -25 1 -32 -4
-15 -9 -42 8 -33 22 8 13 38 11 52 -3z m-158 -50 c80 -16 85 -22 65 -99 -43
-169 -41 -165 -91 -179 -117 -33 -224 30 -248 146 -6 27 -4 32 16 39 22 6 22
7 3 13 -15 5 -21 17 -23 48 l-3 41 113 1 c62 0 137 -4 168 -10z m401 -9 c-11
-9 -17 -19 -14 -23 10 -10 25 -7 18 3 -9 16 15 23 33 10 14 -11 15 -11 5 1
-35 39 21 30 65 -10 106 -96 21 -275 -120 -253 -42 6 -81 31 -75 48 3 7 -1 12
-11 11 -20 -1 -48 76 -36 102 4 9 6 23 5 31 -1 7 2 10 8 6 6 -3 9 0 5 8 -3 9
7 26 23 41 41 39 60 33 26 -8 -17 -20 -17 -20 1 -6 10 8 22 24 27 37 6 17 15
22 35 21 25 -2 25 -3 5 -19z"/>
<path d="M403 646 c12 -25 31 -25 41 0 4 12 1 14 -14 9 -11 -4 -20 -2 -20 4 0
6 -4 11 -9 11 -5 0 -4 -11 2 -24z"/>
<path d="M1105 790 c3 -5 1 -10 -6 -10 -16 0 -5 -11 14 -14 8 -1 23 -8 33 -16
11 -8 6 0 -10 18 -29 32 -43 41 -31 22z"/>
<path d="M1077 729 c7 -7 15 -10 18 -7 3 3 -2 9 -12 12 -14 6 -15 5 -6 -5z"/>
<path d="M1128 713 c6 -2 10 -9 7 -14 -4 -5 1 -6 10 -2 13 5 14 7 3 14 -7 5
-17 8 -23 8 -5 0 -4 -3 3 -6z"/>
<path d="M913 675 c0 -7 6 -11 14 -8 7 3 13 6 13 8 0 2 -6 5 -13 8 -8 3 -14
-1 -14 -8z"/>
<path d="M1136 665 c4 -8 8 -15 10 -15 2 0 4 7 4 15 0 8 -4 15 -10 15 -5 0 -7
-7 -4 -15z"/>
<path d="M947 649 c7 -7 15 -10 18 -7 3 3 -2 9 -12 12 -14 6 -15 5 -6 -5z"/>
<path d="M1126 603 c-6 -14 -5 -15 5 -6 7 7 10 15 7 18 -3 3 -9 -2 -12 -12z"/>
<path d="M1300 1290 c0 -6 7 -22 16 -35 12 -19 13 -25 3 -25 -9 0 -10 -3 -2
-11 7 -7 17 -8 29 -1 11 5 27 8 37 7 25 -4 21 12 -5 21 -12 4 -31 17 -41 30
-19 25 -37 31 -37 14z"/>
<path d="M1180 1102 c-40 -20 -84 -94 -74 -127 9 -31 44 -56 68 -50 33 10 86
39 86 47 0 12 -13 9 -34 -7 -28 -21 -63 -19 -76 5 -14 27 -7 36 35 44 45 9 96
51 88 74 -14 36 -41 40 -93 14z m60 -17 c0 -16 -35 -55 -49 -55 -5 0 -16 -3
-25 -6 -22 -9 -20 12 5 47 22 31 69 41 69 14z"/>
<path d="M1354 1105 c-41 -17 -78 -70 -78 -112 0 -71 68 -87 136 -32 l40 32
-7 -32 c-5 -25 -3 -31 10 -31 8 0 18 8 21 18 3 9 13 33 21 52 9 19 17 53 19
76 3 40 2 40 -27 36 -16 -2 -32 -9 -36 -15 -3 -5 -1 -7 5 -3 18 11 23 -12 11
-51 -21 -70 -124 -120 -149 -73 -14 27 -7 36 34 44 46 9 86 42 86 72 0 13 -3
24 -7 25 -5 0 -17 2 -28 4 -11 2 -34 -2 -51 -10z m52 -33 c-6 -19 -73 -59 -82
-49 -11 11 18 57 43 71 32 17 48 7 39 -22z"/>
<path d="M1551 1094 c-17 -14 -31 -31 -31 -37 0 -6 11 0 25 13 14 13 28 21 31
17 4 -3 -2 -38 -12 -77 -16 -62 -16 -72 -4 -80 11 -7 24 -1 45 20 31 30 69 39
78 20 3 -6 4 -5 3 2 -4 22 -47 21 -77 -1 l-27 -20 10 32 c26 82 30 119 17 128
-20 13 -24 12 -58 -17z"/>
<path d="M1658 954 c-4 -4 -5 -11 -2 -15 7 -13 34 -11 34 2 0 5 -4 8 -9 5 -5
-4 -11 -1 -13 5 -2 5 -7 7 -10 3z"/>
<path d="M1314 812 c-5 -18 -11 -21 -32 -15 -26 6 -26 6 -11 -17 20 -30 39
-37 39 -15 0 12 5 15 21 10 18 -6 20 -4 14 17 -11 37 -25 46 -31 20z"/>
<path d="M1324 521 c-22 -4 -54 -17 -71 -29 -17 -12 -36 -22 -42 -22 -6 0 -11
-5 -11 -11 0 -6 8 -8 19 -4 26 8 51 -4 44 -21 -3 -10 9 -5 33 11 23 16 40 22
42 15 3 -8 8 -8 17 0 8 6 11 18 8 26 -3 8 0 14 6 14 6 0 11 7 11 15 0 8 -3 14
-7 14 -5 -1 -26 -4 -49 -8z"/>
<path d="M425 448 c-11 -6 -21 -11 -22 -12 -1 -1 -4 -13 -8 -27 -8 -33 16 -59
53 -58 25 1 25 1 -6 10 -30 9 -33 13 -30 42 2 27 8 33 31 35 15 2 25 8 22 13
-8 12 -15 11 -40 -3z"/>
<path d="M522 452 c-53 -8 -46 -102 8 -102 33 0 50 17 50 50 0 33 -27 57 -58
52z m36 -25 c21 -24 2 -67 -28 -67 -21 0 -37 39 -26 65 7 18 40 20 54 2z"/>
<path d="M618 453 c-24 -6 -23 -40 2 -53 29 -15 25 -38 -7 -43 -27 -4 -27 -4
3 -6 43 -2 51 23 19 53 -31 29 -31 34 -2 38 12 2 18 6 12 9 -5 3 -18 4 -27 2z"/>
<path d="M670 449 c0 -5 7 -9 15 -9 12 0 15 -10 12 -45 -2 -25 0 -45 5 -45 4
0 8 20 8 45 0 33 4 45 15 45 32 0 13 15 -20 16 -19 1 -35 -3 -35 -7z"/>
<path d="M777 430 c-8 -19 -18 -46 -21 -60 -6 -23 -6 -23 7 -7 8 9 20 17 27
17 7 0 19 -8 27 -17 13 -16 14 -15 8 11 -3 16 -12 43 -19 60 l-14 31 -15 -35z
m27 -25 c3 -9 0 -15 -9 -15 -8 0 -15 7 -15 15 0 8 4 15 9 15 5 0 11 -7 15 -15z"/>
<path d="M894 452 c-11 -9 -13 -102 -2 -102 4 0 8 9 8 19 0 31 19 35 32 7 6
-14 15 -26 20 -26 5 0 6 5 2 11 -4 7 -7 28 -8 47 -1 26 -6 37 -22 42 -11 5
-25 5 -30 2z m41 -21 c3 -6 -4 -15 -15 -21 -17 -9 -20 -8 -20 10 0 20 24 28
35 11z"/>
<path d="M1040 452 c-17 -6 -33 -29 -37 -54 -4 -24 24 -48 55 -47 25 1 25 1
-6 10 -30 9 -33 13 -30 42 2 27 8 33 33 37 19 4 25 8 15 11 -8 3 -22 4 -30 1z"/>
<path d="M1112 408 c-20 -52 -20 -80 -1 -45 12 21 49 23 49 2 0 -8 4 -15 9
-15 10 0 -15 88 -29 103 -4 5 -17 -15 -28 -45z m38 -10 c0 -5 -6 -8 -14 -8 -9
0 -12 7 -9 21 4 16 8 17 14 7 5 -7 9 -16 9 -20z"/>
<path d="M970 398 c0 -28 3 -48 8 -44 9 10 10 96 0 96 -5 0 -8 -23 -8 -52z"/>
</g>
</svg>
